<svg width="256" height="256" viewBox="0 0 256 256" fill="none" xmlns="http://www.w3.org/2000/svg">
<circle cx="71.0404" cy="186.762" r="41.0404" stroke="white" stroke-width="12"/>
<path d="M226.085 186.762C226.085 209.428 207.71 227.803 185.044 227.803C162.378 227.803 144.004 209.428 144.004 186.762C144.004 164.096 162.378 145.722 185.044 145.722C207.71 145.722 226.085 164.096 226.085 186.762Z" stroke="white" stroke-width="12"/>
<path d="M149.718 175C142.743 172.359 135.267 171 127.718 171C120.168 171 112.693 172.359 105.718 175" stroke="white" stroke-width="12"/>
<path d="M245 122H10L73.3478 101.876L91.7391 32L115.239 45.4161L164.283 32L181.652 101.876L245 122Z" fill="white" stroke="white" stroke-width="12" stroke-linejoin="round"/>
</svg>
